<?xml version="1.0" encoding="UTF-8"?>
<svg id="Layer_2" data-name="Layer 2" xmlns="http://www.w3.org/2000/svg" viewBox="0 0 30.91 24.44">
  <defs>
    <style>
      .cls-1 {
        stroke-width: 1.28px;
      }

      .cls-1, .cls-2 {
        fill: none;
        stroke: #0aad0a;
        stroke-linecap: round;
        stroke-miterlimit: 10;
      }

      .cls-2 {
        stroke-width: 1.07px;
      }
    </style>
  </defs>
  <g id="Layer_1-2" data-name="Layer 1">
    <g>
      <path class="cls-1" d="M7.76,22.13c1.47,0,2.67-1.19,2.67-2.67s-1.19-2.67-2.67-2.67-2.67,1.19-2.67,2.67,1.19,2.67,2.67,2.67ZM6.62,6.46h16.14M8.03,9.69h14.02M7.3,16.8h10.45c1.15,0,2.16-.73,2.54-1.81l4.31-12.54c.37-1.08,1.39-1.81,2.54-1.81h3.13"/>
      <path class="cls-2" d="M7.77,19.85c.21,0,.39-.17.39-.39s-.17-.39-.39-.39-.39.17-.39.39.17.39.39.39h0Z"/>
      <path class="cls-1" d="M17.46,22.13c1.47,0,2.67-1.19,2.67-2.67s-1.19-2.67-2.67-2.67-2.67,1.19-2.67,2.67,1.19,2.67,2.67,2.67Z"/>
      <path class="cls-2" d="M17.46,19.85c.21,0,.39-.17.39-.39s-.17-.39-.39-.39-.39.17-.39.39.17.39.39.39h0Z"/>
      <path class="cls-1" d="M20.83,13.42H6.79c-.48,0-.89-.34-1.01-.8L3.4,3.9c-.12-.43.19-.87.62-.87h18M.64,23.8s10.26-3.47,24.11,0"/>
    </g>
  </g>
</svg>